# xmcd
#
# Track frame offsets:
# 150
# 17412
# 33912
# 46805
# 66335
# 80887
# 94202
# 111232
# 125895
# 139567
# 153512
# 170980
# 182457
# 195965
#
# Disc length: 2802 seconds
#
#
# Revision: 4
# Processed by: cddbd v1.5.1PL2 Copyright (c) Steve Scherf et al.
# Submitted via: FreeRIP 2.944 
#
DISCID=bd0af00e
DTITLE=Rio Negro and Solimoes - Rio Negro and Solimoes
DYEAR=1997
DGENRE=Country
TTITLE0=Falta Você
TTITLE1=A Gente Se Entrega
TTITLE2=Tô Doidão
TTITLE3=Frio Da Madrugada
TTITLE4=De São Paulo A Belém
TTITLE5=Saudade Pulou No Peito
TTITLE6=Depois De Você
TTITLE7=Trem Bão
TTITLE8=Cuitelinho
TTITLE9=Deixe A Poeira Subir
TTITLE10=Depois Que Perde
TTITLE11=Rei Da Festa
TTITLE12=Tudo Acabou
TTITLE13=No Pique Do Rodeio
EXTD=YEAR: 1997
EXTT0=
EXTT1=
EXTT2=
EXTT3=
EXTT4=
EXTT5=
EXTT6=
EXTT7=
EXTT8=
EXTT9=
EXTT10=
EXTT11=
EXTT12=
EXTT13=
PLAYORDER=
